<?xml version="1.0" standalone="no"?>
<!DOCTYPE svg PUBLIC "-//W3C//DTD SVG 20010904//EN"
 "http://www.w3.org/TR/2001/REC-SVG-20010904/DTD/svg10.dtd">
<svg version="1.0" xmlns="http://www.w3.org/2000/svg"
 width="2752.000000pt" height="941.000000pt" viewBox="0 0 2752.000000 941.000000"
 preserveAspectRatio="xMidYMid meet">
<metadata>
Created by potrace 1.16, written by Peter Selinger 2001-2019
</metadata>
<g transform="translate(0.000000,941.000000) scale(0.100000,-0.100000)"
fill="#000000" stroke="none">
<path d="M19383 7588 c-9 -10 -27 -18 -39 -18 -13 0 -40 -9 -59 -20 -21 -12
-64 -23 -98 -26 -34 -3 -78 -7 -97 -10 -19 -3 -51 -5 -70 -5 -19 1 -44 -3 -55
-8 -45 -19 -124 -35 -190 -38 -38 -2 -77 -7 -85 -10 -8 -3 -80 -6 -159 -7
-106 -1 -145 -4 -149 -13 -4 -15 -42 -18 -42 -3 0 11 -146 2 -172 -11 -10 -6
-19 -5 -23 1 -3 6 -18 10 -33 10 -15 -1 -63 4 -107 10 -80 11 -208 1 -262 -21
-29 -11 -59 -67 -44 -82 6 -6 11 -20 11 -32 0 -22 18 -41 68 -71 18 -10 32
-27 32 -37 0 -10 9 -21 20 -24 11 -3 20 -9 20 -13 0 -13 55 -32 120 -41 36 -5
92 -13 125 -18 33 -6 61 -8 64 -6 2 3 -2 18 -9 35 -9 21 -19 30 -36 30 -12 0
-26 5 -29 10 -3 6 -19 10 -35 10 -23 0 -31 5 -36 25 -4 15 -16 28 -30 31 -27
7 -31 28 -10 50 18 17 47 19 43 2 -3 -19 40 -21 76 -5 52 24 60 24 95 10 31
-13 35 -12 48 4 9 12 16 15 21 7 11 -15 53 -28 53 -16 0 21 232 31 257 11 8
-7 18 -7 31 0 21 11 32 6 32 -16 0 -8 -7 -13 -15 -11 -16 3 -38 -12 -109 -74
-24 -21 -48 -38 -55 -38 -6 0 -11 -4 -11 -10 0 -5 -6 -10 -12 -10 -7 0 -31
-16 -52 -35 -22 -19 -43 -35 -47 -35 -13 0 -86 -75 -82 -85 1 -6 -13 -20 -33
-33 -19 -12 -39 -34 -44 -47 -5 -13 -27 -36 -50 -51 -22 -15 -40 -32 -40 -39
0 -7 -10 -23 -23 -36 -13 -13 -37 -42 -53 -63 -16 -22 -41 -53 -56 -69 -15
-17 -30 -48 -33 -69 -4 -22 -13 -42 -21 -45 -8 -3 -14 -13 -14 -23 0 -10 -7
-20 -15 -24 -8 -3 -15 -15 -15 -26 0 -11 -4 -20 -10 -20 -5 0 -10 -11 -10 -24
0 -13 -7 -29 -15 -36 -8 -7 -15 -23 -15 -35 0 -13 -12 -47 -27 -75 -23 -44
-27 -62 -24 -114 2 -33 4 -71 3 -84 0 -16 8 -26 24 -32 13 -5 24 -14 24 -19 0
-36 158 -28 199 11 14 12 29 17 41 13 11 -4 20 -2 20 4 0 6 6 11 13 11 7 0 58
38 112 85 54 47 103 85 108 85 6 0 25 18 44 40 19 22 40 40 47 40 7 0 23 9 36
20 13 11 33 20 45 20 11 0 25 4 31 9 5 4 21 11 35 14 20 5 32 0 54 -23 16 -17
25 -30 19 -30 -5 0 -2 -6 7 -13 9 -7 19 -25 23 -40 3 -15 16 -35 27 -45 21
-17 93 -113 92 -122 0 -12 32 -27 48 -23 13 4 22 -3 30 -21 7 -14 17 -26 23
-26 6 0 25 -13 41 -29 17 -15 46 -31 65 -35 98 -18 120 -18 144 -2 14 9 36 16
50 16 13 0 38 13 55 29 16 15 32 27 34 25 2 -2 4 10 4 27 0 21 7 37 23 49 14
10 25 29 25 42 2 28 51 98 69 98 7 0 23 -12 37 -27 13 -14 17 -22 9 -18 -11 6
-10 3 3 -12 9 -11 17 -26 17 -34 0 -33 125 -163 187 -194 21 -11 45 -25 53
-31 30 -23 340 -45 340 -24 0 8 6 8 20 0 15 -8 20 -8 20 3 0 8 21 19 50 27 28
7 50 16 50 20 0 3 14 14 30 23 17 10 30 27 30 38 0 10 5 19 11 19 28 0 79 34
79 52 0 16 6 19 38 16 26 -2 37 -8 35 -18 -1 -8 14 -27 32 -43 36 -30 99 -46
207 -52 54 -4 67 -2 72 11 4 11 13 14 31 10 18 -5 25 -2 25 9 0 8 4 15 9 15
16 0 20 28 8 59 -12 32 -26 38 -44 20 -16 -16 -153 -22 -153 -6 0 11 -26 30
-86 65 -13 7 -29 28 -35 47 -7 19 -18 35 -25 35 -6 0 -18 10 -26 22 l-15 22
-35 -22 c-20 -12 -39 -30 -42 -38 -4 -10 -14 -14 -26 -11 -16 4 -18 2 -10 -13
10 -19 11 -19 -80 -88 -16 -13 -29 -28 -27 -35 1 -6 -5 -11 -13 -12 -15 -1
-104 -26 -165 -47 -16 -5 -36 -9 -42 -9 -7 1 -44 3 -83 4 -47 1 -75 7 -88 18
-10 9 -33 15 -51 14 -23 -1 -35 4 -43 19 -6 12 -19 27 -28 33 -10 7 -21 25
-25 40 -3 16 -22 44 -42 64 -23 25 -31 39 -23 44 8 5 5 12 -9 22 -12 8 -21 21
-21 29 0 8 -20 34 -45 57 -25 24 -45 48 -45 54 0 14 -31 39 -55 45 -11 3 -27
9 -36 12 -21 9 -79 -39 -79 -66 0 -11 -11 -31 -25 -44 -14 -13 -25 -32 -25
-44 0 -11 -6 -20 -14 -20 -9 0 -17 -16 -21 -41 -4 -23 -13 -49 -21 -58 -7 -9
-24 -31 -36 -50 -16 -24 -32 -35 -53 -37 -16 -2 -44 -6 -61 -9 -22 -4 -33 -1
-37 9 -3 8 -16 16 -29 18 -16 2 -26 13 -33 36 -5 17 -15 32 -22 32 -7 0 -19
12 -27 28 -8 15 -30 43 -49 62 -21 21 -37 50 -41 73 -4 20 -11 37 -16 37 -5 0
-24 14 -42 30 -18 17 -36 30 -41 30 -5 0 -22 9 -38 21 -25 18 -45 21 -120 22
-50 0 -94 -4 -97 -9 -4 -6 -25 -15 -48 -22 -22 -6 -51 -23 -64 -37 -13 -14
-29 -25 -36 -25 -7 0 -35 -18 -63 -40 -28 -22 -54 -40 -57 -40 -4 0 -15 -7
-24 -15 -13 -12 -23 -13 -44 -6 -28 11 -51 6 -79 -17 -16 -14 -17 -13 -11 19
4 19 13 39 20 45 8 6 14 21 14 33 0 45 48 117 89 132 15 6 21 15 17 24 -7 19
30 91 56 110 12 7 18 20 15 28 -3 9 6 18 27 27 26 10 32 18 30 36 -2 18 13 41
55 84 31 33 63 60 71 60 8 0 23 14 32 30 10 17 21 30 25 29 22 -5 75 26 84 47
5 14 25 34 44 45 19 12 35 25 35 29 0 15 84 50 94 40 13 -13 26 -13 26 0 0 6
7 27 16 48 15 35 16 36 25 15 4 -13 12 -23 16 -23 17 0 35 18 31 31 -7 20 54
67 101 78 24 5 53 19 65 30 14 13 29 18 44 14 14 -3 22 -1 22 7 0 8 9 11 25 8
15 -3 29 0 33 8 4 8 30 16 57 20 28 3 60 10 72 16 12 6 36 8 55 6 21 -4 36 0
43 9 8 11 17 12 39 3 19 -7 32 -7 41 0 6 5 34 13 61 17 45 6 48 5 35 -10 -7
-10 -20 -17 -28 -17 -10 0 -14 -7 -10 -20 3 -11 2 -20 -3 -20 -16 0 -73 -69
-87 -106 -21 -58 -36 -114 -31 -119 2 -2 21 -2 41 2 28 4 39 12 49 34 12 26
21 33 40 30 4 0 10 9 13 20 17 52 125 111 125 68 0 -6 -6 -9 -12 -6 -21 7 -51
-13 -40 -26 5 -7 8 -33 7 -59 -2 -27 1 -45 6 -42 5 3 9 -2 9 -11 0 -9 -4 -13
-10 -10 -15 9 -12 -12 4 -27 7 -8 17 -28 20 -45 11 -50 138 -183 175 -183 4 0
23 -8 42 -17 41 -21 175 -31 192 -14 6 6 27 11 47 11 19 0 44 7 54 15 10 8 23
12 27 9 5 -3 9 -1 9 4 0 5 9 12 20 15 11 3 22 13 25 24 3 10 14 34 23 53 15
30 16 45 7 105 -6 39 -13 63 -17 55 -5 -13 -7 -12 -7 2 -1 9 5 18 11 20 10 4
9 13 -4 39 -21 43 -31 70 -33 90 -1 9 -11 29 -21 45 -11 16 -25 38 -31 49 -6
12 -19 19 -32 18 -12 -2 -21 1 -21 6 0 21 -51 61 -77 61 -16 0 -39 7 -52 16
-14 10 -33 14 -50 11 -16 -3 -32 -2 -37 2 -5 5 -26 12 -47 15 -27 5 -39 3 -43
-7 -3 -9 -15 -12 -34 -9 -26 4 -30 9 -30 36 0 17 -4 37 -9 45 -18 28 -85 44
-184 46 -82 1 -100 -1 -114 -17z m532 -278 c19 0 76 -50 69 -61 -3 -5 1 -9 8
-9 19 -1 44 -40 56 -86 20 -77 31 -144 26 -157 -9 -24 -167 -56 -189 -37 -7 6
-22 10 -32 9 -23 -3 -54 11 -48 21 3 4 -3 7 -13 6 -12 -1 -18 8 -20 27 -2 20
-13 34 -34 45 -29 17 -30 18 -25 85 3 41 10 74 20 85 8 9 17 26 19 37 3 16 12
21 53 23 28 2 54 8 60 13 5 5 16 7 23 4 8 -3 20 -5 27 -5z"/>
<path d="M14986 6461 c-24 -26 -38 -76 -41 -146 -3 -69 -13 -117 -28 -127 -5
-3 -11 -22 -12 -41 -1 -19 -6 -41 -11 -48 -5 -8 -10 -23 -11 -34 -2 -10 -8
-22 -13 -25 -6 -4 -12 -15 -15 -26 -2 -10 -9 -37 -15 -59 -6 -22 -14 -51 -17
-65 -3 -14 -10 -27 -14 -30 -5 -3 -15 -22 -24 -43 -14 -34 -14 -37 1 -37 16 0
16 -1 1 -18 -10 -11 -17 -35 -17 -59 0 -24 -6 -46 -15 -53 -8 -7 -15 -20 -15
-29 0 -19 -32 -114 -41 -121 -4 -3 -12 -32 -19 -65 -11 -56 -20 -80 -50 -146
-6 -14 -10 -29 -9 -35 8 -42 -4 -96 -27 -123 -20 -24 -23 -35 -15 -44 8 -10 5
-28 -10 -68 -40 -104 -32 -268 11 -254 10 3 23 -1 29 -9 9 -11 20 -12 43 -5
35 9 108 57 108 70 0 4 6 14 13 21 6 7 22 34 35 59 12 26 29 52 37 59 9 7 23
28 31 46 9 19 21 34 28 34 6 0 24 21 41 48 37 59 161 182 184 182 19 0 54 -37
46 -50 -3 -4 0 -21 6 -37 7 -15 11 -36 10 -47 -2 -10 2 -22 8 -25 11 -7 14
-21 27 -103 3 -27 10 -48 15 -48 5 0 9 -10 9 -23 0 -13 4 -27 8 -32 13 -15 34
-94 27 -105 -3 -5 4 -14 15 -20 11 -6 20 -19 20 -30 0 -12 17 -29 46 -46 39
-23 53 -26 96 -21 34 4 57 2 66 -5 11 -10 17 -8 28 6 9 13 20 17 39 12 15 -4
34 -1 48 8 12 8 47 22 79 31 31 9 59 22 62 30 10 27 34 16 91 -39 30 -30 55
-52 55 -49 0 4 8 -1 18 -9 18 -16 75 -16 95 0 13 10 41 9 71 -3 12 -5 28 -2
45 9 14 9 40 24 58 31 17 8 34 19 38 25 3 5 14 10 24 10 22 0 101 74 101 94 0
9 8 16 18 16 19 1 52 23 52 36 1 12 101 84 117 84 15 0 18 -26 3 -35 -5 -3 -6
-15 0 -29 5 -14 5 -54 -1 -96 -7 -61 -6 -76 6 -90 8 -9 15 -26 15 -37 0 -32
32 -53 81 -53 36 0 49 5 72 30 16 17 36 30 45 30 18 0 72 45 72 59 0 13 56 71
69 71 6 0 17 12 23 28 6 15 35 50 63 77 28 28 60 62 70 78 9 15 23 27 30 27 7
0 31 25 55 56 37 49 45 55 72 52 18 -2 34 -9 36 -17 3 -9 0 -11 -8 -6 -9 5
-10 2 -5 -14 4 -12 3 -27 -2 -34 -5 -7 -10 -65 -12 -131 l-3 -118 48 -49 c53
-54 74 -59 119 -29 17 11 40 20 51 20 13 0 31 14 45 35 21 31 27 34 57 29 27
-5 34 -3 38 13 3 10 26 32 51 48 26 16 65 47 88 69 71 69 117 106 126 100 5
-3 17 8 26 24 9 16 30 34 46 42 16 7 46 29 67 50 29 28 44 36 63 33 17 -3 34
4 58 26 18 17 39 31 46 31 7 0 13 5 13 11 0 7 9 9 22 6 12 -4 27 -2 32 2 18
14 210 33 214 21 2 -5 12 -10 23 -10 10 0 19 -7 19 -15 0 -16 105 -125 121
-125 5 0 9 -4 9 -9 0 -5 12 -23 28 -39 15 -16 43 -52 62 -80 19 -28 39 -50 45
-48 5 1 38 -19 73 -46 36 -28 70 -47 78 -44 8 3 14 -1 14 -9 0 -17 85 -69 99
-61 5 4 25 -3 43 -14 18 -11 42 -20 53 -20 16 0 17 -2 5 -10 -19 -12 -8 -22
27 -23 15 -1 34 -8 41 -14 7 -7 28 -13 45 -13 18 0 41 -7 51 -15 11 -8 28 -15
37 -15 10 0 19 -5 21 -11 2 -6 23 -12 46 -13 24 0 44 -6 47 -14 3 -8 13 -10
29 -6 13 3 27 1 31 -6 4 -6 16 -8 26 -5 11 4 31 0 45 -10 13 -9 29 -13 35 -10
5 4 15 2 22 -3 18 -14 56 -21 59 -11 2 4 23 4 47 -2 53 -12 331 -30 343 -23 5
3 19 -1 31 -9 15 -9 30 -11 44 -6 28 10 100 21 135 20 25 0 27 3 24 29 -4 39
-10 44 -36 30 -16 -9 -25 -9 -33 -1 -19 19 -30 12 -24 -14 4 -23 3 -24 -12
-12 -25 22 -138 49 -172 42 -25 -6 -29 -4 -29 14 0 19 -2 19 -31 7 -25 -11
-44 -10 -107 1 -42 7 -82 11 -89 9 -16 -6 -83 15 -83 27 0 5 -8 6 -17 3 -25
-10 -126 15 -185 45 -10 5 -27 9 -37 9 -11 0 -22 4 -25 9 -4 5 -30 12 -58 16
-30 4 -58 15 -65 24 -7 9 -13 12 -13 8 0 -4 -9 1 -21 12 -11 10 -40 24 -65 31
-24 7 -47 17 -50 21 -3 5 -13 9 -23 9 -10 0 -24 7 -31 15 -7 8 -21 15 -31 15
-11 0 -19 4 -19 9 0 5 -18 17 -40 27 -22 10 -40 24 -40 31 0 7 -11 13 -25 13
-14 0 -25 4 -25 9 0 5 -16 15 -35 21 -19 6 -35 15 -35 20 0 4 -20 23 -45 41
-24 19 -45 39 -45 46 0 6 -13 21 -30 33 -16 12 -33 32 -36 46 -3 13 -10 24
-15 24 -5 0 -17 17 -28 38 -10 20 -29 48 -41 62 -25 29 -88 60 -107 53 -7 -3
-17 6 -23 22 -5 14 -14 24 -18 21 -5 -3 -55 -7 -113 -10 -93 -4 -114 -9 -189
-41 -47 -21 -92 -44 -101 -51 -8 -8 -25 -14 -37 -14 -13 0 -22 -6 -22 -15 0
-8 -4 -15 -9 -15 -20 0 -131 -73 -146 -96 -8 -13 -24 -24 -35 -24 -11 0 -20
-4 -20 -10 0 -5 -7 -10 -15 -10 -8 0 -32 -16 -52 -36 -21 -19 -51 -43 -68 -51
-33 -17 -105 -73 -148 -115 -15 -15 -36 -30 -47 -33 -10 -3 -22 -15 -25 -26
-4 -10 -12 -19 -19 -19 -18 0 -43 145 -28 162 5 7 13 34 17 60 6 39 3 54 -14
83 -11 19 -18 42 -15 50 4 8 1 22 -6 30 -6 8 -9 18 -6 24 3 5 -24 12 -64 16
-56 6 -75 4 -95 -9 -13 -9 -31 -16 -39 -16 -8 0 -32 -18 -53 -41 -21 -23 -63
-61 -93 -86 -54 -43 -79 -74 -100 -121 -5 -12 -20 -26 -32 -31 -13 -5 -45 -30
-72 -55 -26 -25 -61 -48 -76 -51 -27 -6 -28 -5 -26 31 2 21 8 40 14 42 7 2 12
10 12 18 0 8 5 14 11 14 6 0 9 7 5 15 -6 17 13 65 26 65 4 0 3 9 -4 19 -9 15
-8 24 5 45 9 14 17 40 17 58 0 18 9 47 20 63 24 36 24 60 1 100 -16 27 -23 30
-65 28 -43 -1 -95 -28 -81 -41 9 -9 -57 -93 -91 -115 -18 -12 -41 -36 -49 -53
-8 -18 -22 -34 -30 -38 -8 -3 -15 -11 -15 -17 0 -7 -12 -24 -27 -39 -35 -33
-73 -86 -73 -100 0 -5 -7 -10 -15 -10 -9 0 -36 -21 -61 -46 -37 -39 -49 -46
-75 -42 -24 4 -35 -1 -54 -24 -18 -21 -32 -28 -59 -28 -20 0 -36 -4 -36 -9 0
-14 -56 -30 -82 -24 -38 9 -58 34 -58 70 0 18 3 33 8 33 4 0 7 24 7 53 0 34 8
69 23 101 13 28 25 64 27 80 2 17 9 56 15 87 16 74 -7 165 -45 179 -14 5 -25
14 -25 19 0 15 -71 -6 -92 -26 -16 -17 -26 -18 -71 -11 -98 17 -89 20 -225
-99 -59 -51 -79 -108 -56 -161 14 -34 14 -34 -30 -77 -51 -49 -65 -94 -46
-150 12 -38 7 -85 -10 -85 -14 0 -48 58 -56 94 -4 17 -13 41 -22 54 -11 16
-13 38 -9 77 4 41 2 57 -10 66 -8 7 -13 23 -10 36 2 13 0 26 -4 29 -5 3 -9 18
-9 34 0 16 -4 31 -9 34 -5 3 -12 21 -15 40 -4 19 -13 39 -21 46 -8 7 -15 18
-15 25 0 6 -9 22 -20 35 -11 13 -20 26 -20 30 0 4 -25 11 -55 15 -68 8 -87 -1
-216 -112 -53 -46 -102 -83 -109 -83 -13 0 -5 70 11 102 5 9 9 26 9 37 0 12 5
21 11 21 7 0 8 11 4 31 -6 24 -2 36 16 55 15 16 24 39 25 64 1 21 9 49 18 62
9 12 16 33 16 46 0 12 7 34 16 48 9 13 14 27 11 31 -3 3 7 32 23 64 18 35 30
74 30 98 0 22 5 43 10 46 6 3 10 19 10 34 0 15 3 31 7 35 12 11 32 115 32 167
1 25 5 49 10 55 5 5 12 43 16 85 l7 77 -40 41 c-43 45 -70 51 -96 22z m808
-1263 c18 -90 17 -94 -55 -200 -20 -29 -43 -66 -53 -81 -14 -23 -23 -28 -49
-25 -30 3 -32 5 -40 58 -5 34 -3 72 4 100 6 25 11 57 10 71 0 20 8 30 35 42
19 10 49 17 67 17 21 0 36 7 45 20 16 26 31 25 36 -2z"/>
<path d="M9610 6430 c-14 -11 -29 -20 -34 -20 -11 0 -174 -168 -236 -244 -25
-30 -51 -55 -57 -55 -7 -1 -13 -7 -13 -14 0 -8 -19 -35 -42 -60 -24 -25 -54
-63 -68 -83 -44 -64 -142 -153 -162 -147 -4 2 -5 -3 -2 -11 3 -7 -2 -19 -11
-26 -8 -7 -15 -20 -15 -30 0 -9 -9 -25 -20 -35 -11 -10 -20 -21 -20 -25 0 -3
-19 -27 -43 -51 -24 -25 -50 -61 -60 -79 -27 -56 -42 -70 -73 -70 -52 0 -145
27 -168 49 -12 11 -27 21 -32 21 -12 0 -52 38 -84 80 -14 18 -33 40 -43 49
-57 51 -102 106 -103 124 -1 11 -13 29 -28 40 -14 10 -23 23 -20 29 3 5 -7 26
-23 46 -17 20 -36 61 -44 91 -10 41 -21 58 -43 72 -47 28 -109 9 -139 -42 -20
-36 -22 -60 -5 -77 21 -21 20 -139 -2 -180 -22 -40 -25 -62 -10 -62 16 0 11
-62 -7 -82 -15 -17 -15 -19 0 -31 16 -11 19 -49 5 -87 -22 -64 -25 -79 -16
-94 6 -11 6 -38 -2 -74 -6 -31 -12 -64 -13 -72 -2 -9 -7 -22 -12 -29 -5 -9 -4
-12 3 -7 19 11 23 -13 7 -43 -8 -17 -15 -54 -16 -83 0 -74 -32 -224 -50 -238
-4 -3 -9 -23 -13 -45 -3 -22 -7 -47 -9 -55 -2 -8 -7 -33 -11 -55 -5 -22 -15
-51 -23 -63 -8 -13 -16 -47 -17 -76 -2 -29 -10 -67 -19 -85 -9 -19 -14 -37
-12 -42 3 -4 -4 -23 -15 -41 -11 -18 -20 -43 -20 -54 0 -12 -7 -27 -16 -35 -9
-8 -13 -21 -10 -35 4 -13 1 -26 -4 -29 -6 -4 -10 -14 -9 -23 2 -10 -1 -28 -5
-42 -5 -13 -10 -76 -11 -140 -2 -63 -6 -129 -9 -146 -6 -27 -2 -35 26 -58 18
-14 38 -31 45 -36 20 -17 62 -11 80 10 10 11 23 20 30 20 7 0 13 6 13 14 0 8
6 16 13 19 10 4 13 20 9 60 -5 65 35 315 55 338 7 8 18 42 24 75 7 32 19 67
27 76 8 10 16 31 17 47 2 16 13 44 25 61 17 24 21 40 17 66 -4 21 -1 39 7 46
17 17 35 115 40 213 7 117 16 175 38 222 11 23 19 52 18 65 -5 56 0 88 14 88
13 0 15 32 14 203 0 168 2 202 14 205 9 2 22 -13 32 -36 19 -41 137 -162 159
-162 7 0 18 -9 25 -20 7 -11 17 -20 24 -20 16 0 116 -48 123 -60 3 -6 31 -10
61 -10 49 0 68 -10 45 -24 -4 -3 -11 -21 -14 -40 -3 -19 -19 -53 -36 -77 -17
-23 -29 -49 -26 -58 3 -9 -8 -30 -25 -48 -17 -18 -30 -35 -30 -38 0 -4 -10
-21 -22 -38 -42 -59 -50 -80 -43 -125 5 -37 11 -44 42 -57 19 -8 46 -15 59
-15 24 0 78 43 80 63 2 24 17 57 24 57 4 0 11 16 14 35 4 21 13 35 21 35 8 0
15 9 15 20 0 11 3 20 8 20 4 0 15 17 24 38 8 20 34 62 57 92 23 30 41 58 41
62 0 5 18 34 39 66 41 60 91 92 143 92 17 0 32 9 42 26 10 14 35 41 56 60 27
24 42 48 46 72 4 21 14 45 24 54 11 11 16 26 13 42 -4 18 -1 26 9 26 14 0 35
93 37 159 0 13 7 31 15 40 9 10 16 22 16 28 0 5 9 18 20 28 11 10 20 23 20 30
0 6 11 22 25 35 13 12 22 27 19 31 -3 5 1 9 8 9 7 0 22 14 33 30 11 16 23 30
27 30 13 0 48 34 48 45 0 16 42 52 58 49 6 -1 16 -2 20 -3 10 -1 15 -168 5
-184 -4 -6 -8 -48 -9 -92 -2 -75 -7 -131 -18 -215 -3 -19 -5 -50 -5 -68 -1
-19 -5 -31 -11 -27 -5 3 -10 3 -10 -2 0 -25 -22 -141 -29 -158 -10 -23 -31
-141 -31 -176 0 -13 -7 -37 -15 -53 -8 -15 -15 -46 -15 -67 0 -21 -4 -41 -10
-44 -5 -3 -10 -25 -10 -47 0 -40 -13 -94 -31 -130 -5 -10 -9 -29 -9 -42 0 -13
-7 -26 -15 -30 -11 -4 -15 -22 -15 -74 0 -37 -4 -72 -9 -78 -15 -16 -38 -107
-51 -194 -11 -77 -21 -140 -37 -225 -3 -16 -11 -35 -19 -41 -7 -6 -13 -24 -12
-40 2 -46 -21 -162 -49 -249 -24 -73 -28 -93 -32 -149 -1 -11 -6 -16 -15 -13
-12 5 -13 0 -5 -25 6 -23 5 -40 -5 -60 -17 -33 -31 -88 -27 -106 1 -7 -5 -36
-13 -65 -8 -29 -18 -88 -21 -132 -4 -44 -11 -84 -15 -90 -4 -5 -10 -39 -14
-75 -3 -36 -10 -92 -15 -125 -5 -33 -12 -82 -16 -110 -4 -27 -9 -57 -13 -65
-3 -8 -7 -46 -8 -85 -1 -38 -9 -99 -17 -134 -12 -50 -13 -68 -4 -83 10 -16 9
-22 -5 -32 -19 -14 -25 -66 -8 -66 10 0 2 -99 -10 -115 -11 -14 -1 -334 11
-356 5 -10 9 -27 9 -38 0 -10 5 -21 11 -23 14 -5 2 -68 -12 -68 -6 0 -5 -8 1
-21 6 -11 12 -38 12 -60 0 -21 4 -42 9 -45 5 -3 7 -10 3 -15 -3 -5 1 -21 10
-34 9 -13 16 -31 16 -40 0 -8 9 -35 21 -60 11 -24 18 -49 14 -55 -4 -6 5 -20
19 -31 14 -11 26 -27 26 -34 0 -8 27 -41 60 -74 44 -44 72 -63 103 -71 23 -6
51 -15 62 -20 82 -37 97 -40 164 -29 36 5 81 19 100 30 19 11 40 18 48 14 9
-3 23 5 35 20 15 19 25 24 44 19 17 -4 26 -1 30 10 3 9 26 25 49 35 24 11 50
29 57 40 7 12 22 21 33 21 28 1 51 20 58 51 9 37 52 80 72 72 19 -7 35 12 35
39 0 14 -8 18 -40 16 -22 -1 -40 -5 -40 -8 0 -4 -10 -10 -22 -13 -18 -5 -19
-8 -8 -22 12 -15 10 -16 -22 -10 -29 6 -40 3 -57 -14 -12 -12 -28 -21 -36 -21
-8 0 -15 -4 -15 -10 0 -5 -10 -10 -21 -10 -12 0 -33 -12 -46 -26 -13 -14 -30
-23 -38 -20 -8 3 -18 -1 -22 -8 -5 -7 -39 -18 -78 -25 -38 -7 -92 -17 -120
-22 -62 -12 -107 -5 -130 21 -9 10 -22 17 -29 14 -14 -5 -86 71 -86 90 0 7
-13 25 -30 41 -22 21 -27 32 -19 41 14 17 3 69 -24 113 -11 19 -15 31 -8 27
10 -6 12 -3 8 10 -3 11 -8 39 -12 64 -4 25 -11 59 -16 75 -12 41 -20 403 -9
410 5 3 7 47 3 100 -4 60 -2 104 5 122 14 35 24 224 12 242 -5 8 -1 20 11 32
14 14 19 34 19 80 0 33 5 69 10 80 6 10 13 54 15 96 3 43 11 100 20 127 17 57
19 100 5 126 -7 13 -6 27 5 47 27 51 48 107 52 142 2 19 8 42 13 52 6 10 10
39 10 66 0 26 7 68 16 92 8 24 13 50 10 57 -3 7 -2 14 3 16 16 7 54 147 58
213 3 39 13 88 23 110 26 56 59 208 62 285 0 8 6 34 14 58 8 23 14 60 14 80 0
21 6 46 14 57 7 11 12 31 11 45 -1 14 0 30 4 35 12 21 31 81 31 103 0 12 5 22
10 22 6 0 10 22 10 50 0 27 6 67 14 87 35 99 46 141 46 179 0 22 3 44 7 48 4
4 9 19 11 34 2 15 7 29 12 32 5 3 13 46 19 95 14 120 21 167 28 185 4 8 8 33
9 55 2 22 5 77 8 122 3 45 10 91 15 101 7 13 7 22 -1 30 -5 5 -7 16 -3 23 5 6
9 50 10 96 1 51 6 88 13 92 8 5 9 17 2 41 -5 19 -8 58 -8 85 2 73 -10 126 -38
163 -21 27 -31 32 -67 32 -26 0 -51 -8 -67 -20z"/>
<path d="M12958 6203 c-27 -27 -48 -56 -48 -65 0 -9 -7 -23 -15 -32 -9 -8 -15
-17 -14 -18 5 -6 -34 -78 -41 -78 -4 0 -11 -15 -14 -34 -4 -19 -13 -37 -21
-40 -8 -3 -15 -15 -15 -27 0 -13 -8 -31 -17 -42 -13 -15 -14 -18 -3 -12 13 7
13 6 2 -7 -7 -8 -9 -23 -6 -32 5 -12 0 -19 -13 -22 -19 -5 -70 -90 -65 -107 1
-4 -5 -10 -13 -13 -8 -4 -15 -13 -15 -21 0 -9 -10 -32 -22 -52 -13 -20 -23
-40 -23 -46 0 -6 -9 -22 -20 -35 -11 -14 -19 -23 -18 -21 2 2 -7 9 -20 16 -37
18 -113 -2 -138 -37 -12 -16 -22 -34 -23 -41 -1 -7 -5 -18 -9 -25 -5 -7 -6
-20 -3 -30 3 -9 -3 -30 -14 -47 -11 -16 -20 -40 -20 -52 0 -12 -4 -25 -10 -28
-5 -3 -10 -19 -10 -35 0 -16 -4 -31 -9 -34 -4 -3 -11 -19 -15 -36 -3 -17 -12
-38 -20 -46 -11 -10 -12 -22 -6 -43 5 -18 4 -33 -2 -39 -6 -6 -12 -29 -13 -53
-2 -25 -10 -46 -19 -51 -12 -7 -15 -20 -12 -50 4 -51 -10 -96 -39 -124 -15
-13 -20 -26 -15 -35 4 -8 4 -39 -2 -69 -5 -30 -11 -67 -12 -82 -2 -15 -11 -39
-20 -53 -9 -14 -14 -30 -11 -35 3 -5 -5 -21 -19 -35 -15 -14 -26 -32 -26 -39
0 -8 -7 -19 -16 -27 -21 -17 -44 -63 -44 -89 0 -11 -5 -20 -10 -20 -14 0 -31
-46 -24 -64 3 -8 12 -16 19 -18 10 -2 8 -14 -8 -48 -12 -25 -24 -46 -28 -48
-4 -2 -5 -33 -3 -69 3 -41 -1 -75 -9 -92 -22 -47 1 -110 51 -139 20 -11 29
-10 60 5 38 19 91 85 73 91 -17 6 -13 21 14 56 14 18 25 37 25 43 0 5 7 25 17
43 9 18 16 48 15 67 -1 18 3 33 8 33 6 0 10 18 10 40 0 25 6 42 16 48 9 5 17
23 18 40 1 17 5 34 9 38 4 4 7 20 7 35 0 16 9 46 20 67 20 39 24 51 39 123 7
32 77 137 93 138 24 2 88 100 88 135 0 13 61 63 130 107 14 9 54 44 89 78 35
33 72 61 82 61 10 0 25 10 34 23 8 12 30 27 48 33 26 9 32 16 32 40 0 28 1 29
49 26 40 -3 51 0 63 17 25 37 53 21 53 -30 0 -10 4 -19 8 -19 9 0 6 -233 -3
-257 -2 -7 0 -13 4 -13 13 0 1 -121 -14 -146 -9 -14 -10 -25 -3 -38 7 -13 6
-26 -2 -45 -19 -40 -29 -90 -19 -97 15 -9 10 -43 -9 -55 -13 -8 -17 -20 -14
-41 3 -17 -1 -33 -7 -37 -7 -5 -12 -46 -14 -113 -1 -58 -5 -104 -9 -101 -5 2
-3 -8 2 -22 7 -17 7 -24 0 -20 -10 6 -13 -35 -10 -120 1 -53 -34 -268 -55
-324 -8 -24 -13 -53 -9 -63 3 -10 1 -25 -5 -32 -7 -8 -18 -42 -25 -77 -7 -35
-23 -80 -35 -99 -11 -19 -21 -47 -21 -63 0 -15 -12 -51 -26 -80 -14 -28 -32
-65 -40 -80 -8 -16 -14 -35 -14 -43 0 -8 -5 -14 -11 -14 -5 0 -7 -5 -4 -10 4
-6 2 -16 -3 -23 -5 -7 -13 -26 -16 -44 -4 -17 -14 -34 -23 -37 -10 -4 -13 -14
-9 -31 4 -14 2 -25 -4 -25 -5 0 -10 5 -10 12 0 6 -2 9 -5 6 -3 -3 -1 -17 4
-31 9 -24 5 -32 -44 -83 -30 -31 -55 -59 -55 -63 0 -3 -9 -12 -20 -19 -11 -7
-20 -18 -20 -26 0 -25 -29 -38 -92 -41 -65 -3 -89 6 -101 38 -12 31 -32 13
-32 -29 0 -44 14 -64 45 -64 23 0 80 -29 80 -42 0 -4 8 -6 18 -6 9 0 22 0 27
-2 6 -1 25 -2 42 -1 27 1 49 17 118 84 47 45 85 90 85 99 0 9 11 23 25 32 14
10 30 27 35 39 6 12 14 29 19 37 5 8 15 29 22 45 7 17 21 39 30 50 26 31 59
94 59 113 0 10 11 33 25 52 15 20 24 45 23 65 -1 18 9 49 20 70 12 20 22 44
22 54 0 10 7 24 15 31 8 7 15 27 15 45 0 42 18 95 41 121 14 15 19 36 19 77 0
32 4 65 8 75 5 9 14 27 20 38 7 15 7 25 0 32 -11 11 -2 52 13 52 5 0 9 29 9
65 0 61 18 155 30 155 3 0 4 30 3 67 -1 43 5 81 14 102 15 33 15 36 -5 51 -19
16 -20 19 -5 40 10 14 16 46 17 84 1 33 5 67 10 74 4 7 9 40 11 75 2 34 6 80
9 102 3 22 5 59 5 82 0 23 4 44 10 47 11 7 28 232 35 458 1 46 7 51 81 71 100
25 164 6 165 -50 0 -12 4 -24 9 -28 5 -3 7 -20 5 -38 -4 -22 0 -38 13 -52 21
-23 23 -95 4 -163 -7 -23 -10 -46 -7 -51 3 -5 -3 -20 -14 -34 -11 -14 -20 -32
-20 -40 0 -8 -7 -28 -15 -43 -8 -16 -15 -36 -15 -44 0 -9 -5 -21 -10 -26 -6
-6 -15 -39 -21 -75 -6 -35 -14 -68 -20 -73 -5 -6 -9 -18 -9 -28 0 -10 -4 -18
-10 -18 -5 0 -10 -10 -10 -22 0 -12 -6 -29 -13 -37 -22 -25 -48 -141 -51 -221
-2 -67 0 -77 23 -103 28 -31 111 -52 111 -27 0 7 12 21 26 32 14 11 23 26 20
33 -2 7 2 21 9 32 8 10 15 34 15 54 0 19 5 40 11 46 6 6 13 38 16 72 3 33 9
61 13 61 5 0 6 9 3 20 -3 11 -1 20 4 20 6 0 18 21 27 48 10 26 21 56 26 67 5
11 12 35 15 53 4 17 11 32 16 32 4 0 6 14 2 31 -3 17 -2 34 3 38 19 13 38 58
40 96 1 21 8 58 14 82 7 23 10 56 8 73 -3 19 -1 29 6 27 14 -5 31 29 46 94 12
49 32 85 75 130 8 9 15 26 15 38 0 12 7 24 16 28 8 3 13 11 10 19 -3 7 2 18
10 24 8 7 14 25 14 40 0 19 7 30 24 38 23 10 86 91 86 110 0 6 15 23 34 40 38
34 35 57 -7 46 -29 -7 -80 -64 -91 -101 -4 -13 -15 -23 -24 -23 -15 0 -49 -46
-98 -132 -6 -10 -21 -30 -33 -44 -11 -13 -21 -27 -21 -32 0 -4 -16 -18 -35
-32 -19 -14 -39 -37 -46 -52 -6 -16 -15 -28 -20 -28 -15 0 -31 41 -26 67 3 15
-1 27 -9 30 -8 3 -14 11 -14 18 0 6 -22 30 -49 53 -43 37 -55 42 -102 43 -30
1 -67 -2 -83 -6 -16 -5 -31 -4 -35 2 -3 6 -27 8 -59 3 -51 -6 -54 -5 -63 18
-12 32 -17 94 -21 254 -2 71 -7 128 -12 128 -4 0 -5 12 -2 26 4 15 2 32 -5 40
-7 8 -9 27 -5 49 5 24 2 44 -8 63 -8 15 -27 53 -41 85 -14 32 -32 60 -40 63
-8 4 -15 12 -15 19 0 7 -6 15 -14 18 -8 3 -20 18 -28 34 -11 24 -20 28 -58 31
-42 3 -48 0 -92 -45z m98 -236 c9 -17 20 -34 25 -37 4 -3 10 -66 13 -140 5
-146 12 -208 27 -254 11 -37 12 -106 0 -106 -5 0 -12 -24 -15 -54 -6 -47 -12
-58 -47 -85 -21 -18 -54 -37 -72 -43 -42 -15 -127 -79 -127 -95 0 -8 -11 -18
-25 -23 -14 -5 -28 -17 -31 -25 -4 -8 -14 -15 -23 -15 -19 0 -61 -35 -61 -50
0 -6 -7 -10 -15 -10 -8 0 -22 -12 -32 -26 -9 -15 -32 -33 -50 -41 -19 -7 -50
-32 -70 -54 -46 -50 -73 -66 -84 -48 -4 7 -1 21 7 33 8 11 14 31 14 43 0 13 6
23 14 23 16 0 28 24 20 44 -3 8 3 22 14 32 11 11 23 38 27 62 4 23 10 42 13
42 4 0 13 15 21 33 7 17 29 64 47 104 19 39 34 75 34 79 0 4 9 27 21 50 11 24
22 55 23 70 2 15 10 32 18 38 8 6 13 16 11 23 -2 6 1 14 6 18 6 3 11 16 11 28
1 27 17 50 48 66 19 10 22 18 17 41 -4 20 -2 31 10 37 15 9 44 73 45 101 0 7
15 36 33 65 19 28 41 63 49 77 24 39 64 38 84 -3z"/>
<path d="M10667 4124 c-15 -8 -25 -19 -21 -25 3 -5 -10 -28 -30 -49 -30 -33
-36 -48 -36 -83 0 -24 -4 -47 -9 -52 -5 -6 -12 -50 -16 -100 -6 -88 -6 -91 20
-118 15 -16 33 -26 40 -23 8 3 32 -4 54 -15 43 -20 71 -25 71 -10 0 5 13 11
29 14 28 6 45 26 98 119 12 21 20 38 16 38 -3 0 -1 6 5 13 12 14 5 57 -9 57
-5 0 -9 11 -9 25 0 16 -6 25 -16 25 -12 0 -14 7 -9 30 5 24 3 31 -12 37 -28
11 -44 30 -37 47 3 8 1 21 -5 28 -7 7 -17 20 -24 29 -17 24 -67 30 -100 13z"/>
<path d="M20033 3712 l-28 -29 -115 4 c-112 4 -235 -10 -246 -28 -3 -5 -13 -9
-22 -9 -14 0 -15 2 -2 10 23 14 6 22 -24 10 -15 -5 -32 -7 -38 -4 -6 4 -115 9
-242 11 -444 8 -416 6 -427 25 -9 16 -13 16 -32 4 -20 -13 -79 -23 -182 -32
-39 -3 -65 -3 -296 0 -77 1 -110 -3 -123 -13 -14 -12 -19 -11 -35 3 -15 14
-31 16 -77 11 -33 -3 -88 -8 -124 -10 -36 -3 -79 -7 -97 -11 -29 -6 -31 -4
-27 17 5 21 4 22 -8 8 -7 -9 -20 -16 -28 -17 -8 0 -94 -3 -190 -6 -96 -3 -206
-10 -245 -15 -38 -6 -90 -10 -115 -9 -58 0 -251 -12 -268 -18 -8 -2 -16 5 -19
15 -4 15 -9 18 -22 11 -9 -5 -65 -14 -126 -20 -60 -6 -115 -16 -122 -22 -7 -5
-22 -6 -35 -2 -13 4 -47 6 -75 5 -34 -1 -53 3 -53 10 0 7 -7 8 -17 4 -63 -27
-96 -35 -107 -26 -6 5 -29 7 -51 4 -22 -2 -89 -7 -150 -9 -109 -3 -132 -5
-336 -24 -59 -5 -122 -7 -140 -4 -19 3 -83 -2 -144 -11 -60 -9 -128 -16 -150
-15 -22 2 -47 2 -55 1 -72 -6 -611 -8 -650 -2 -28 5 -53 4 -56 0 -7 -12 -270
-2 -294 11 -23 12 -107 4 -127 -12 -7 -6 -17 -26 -22 -45 -9 -32 -7 -37 22
-63 18 -16 47 -31 65 -35 18 -3 32 -12 32 -20 0 -21 30 -34 61 -25 15 5 30 6
33 3 8 -9 150 -3 159 6 8 8 86 -1 127 -14 14 -4 20 -2 20 9 0 19 4 20 29 5 13
-9 26 -9 51 -1 18 7 39 8 46 4 8 -5 47 -5 86 0 39 4 75 5 80 2 10 -6 138 -5
316 3 91 4 126 2 138 -8 12 -10 20 -8 44 9 22 17 35 20 52 13 13 -5 37 -6 54
-4 20 3 35 -1 43 -11 12 -14 16 -14 43 5 23 17 38 20 73 15 26 -4 46 -3 50 3
3 6 24 9 46 7 22 -2 42 0 45 5 2 4 11 6 19 2 9 -3 15 1 15 8 0 14 28 18 128
19 24 0 49 3 55 7 10 6 124 11 287 11 30 1 62 1 70 1 8 0 38 3 66 7 33 4 59 2
73 -6 17 -9 26 -9 37 0 7 7 20 10 28 7 8 -3 28 1 45 9 23 12 47 13 116 6 64
-6 93 -5 111 4 17 9 54 11 129 7 71 -4 105 -3 105 5 0 6 29 10 79 10 43 -1 84
2 90 6 7 4 18 3 25 -3 9 -7 16 -7 24 1 10 10 17 10 32 0 17 -10 26 -10 50 3
33 17 66 20 75 5 3 -5 18 -9 33 -9 15 0 54 0 86 0 33 0 65 3 70 7 6 4 53 5
105 2 80 -4 92 -7 78 -18 -9 -8 -25 -11 -37 -7 -11 3 -20 2 -20 -3 0 -5 -29
-13 -65 -17 -36 -3 -67 -11 -70 -16 -3 -5 -14 -3 -25 3 -15 10 -27 10 -50 1
-16 -6 -39 -9 -50 -6 -11 3 -20 0 -20 -6 0 -6 -7 -11 -15 -11 -9 0 -15 -10
-16 -22 -1 -16 -3 -18 -6 -6 -3 13 -19 17 -70 20 -36 2 -67 0 -70 -4 -2 -5
-24 -8 -48 -8 -24 0 -65 -7 -90 -16 -31 -10 -50 -12 -58 -5 -8 6 -18 5 -31 -4
-10 -8 -24 -11 -32 -8 -30 11 -63 -7 -72 -39 -10 -39 -27 -47 -35 -16 -4 13
-2 25 3 26 21 8 9 24 -12 18 -13 -4 -81 -10 -153 -13 -71 -2 -135 -9 -142 -15
-6 -5 -61 -12 -122 -15 -61 -3 -108 -10 -105 -14 3 -5 -26 -8 -63 -8 -85 0
-123 -4 -123 -13 0 -3 -42 -9 -92 -12 -135 -9 -224 -22 -243 -36 -11 -8 -90
-20 -173 -25 -30 -2 -59 -8 -65 -13 -7 -5 -38 -13 -69 -16 -32 -4 -58 -10 -58
-14 0 -4 -17 -8 -37 -10 -21 -1 -42 -7 -47 -12 -6 -6 -17 -10 -26 -10 -8 -1
-26 -10 -39 -20 -20 -18 -22 -26 -17 -64 4 -27 16 -52 31 -66 14 -13 25 -29
25 -37 0 -7 8 -13 17 -13 9 0 25 -8 35 -17 12 -10 37 -18 62 -18 23 -1 46 -4
52 -7 5 -4 16 -3 24 2 8 5 21 5 29 0 9 -4 39 -6 66 -4 70 6 66 6 110 -1 56 -8
86 -7 100 5 6 5 15 7 18 4 11 -12 55 6 60 24 4 14 5 14 6 1 1 -12 11 -15 44
-14 79 3 87 5 87 19 0 9 7 12 20 9 11 -3 20 -12 20 -19 0 -8 4 -14 9 -14 5 0
16 -3 24 -6 8 -3 27 6 42 20 34 32 38 32 50 4 8 -19 16 -22 50 -20 22 2 45 9
50 15 14 17 132 22 150 7 12 -10 21 -10 43 -1 16 7 44 12 63 11 67 -1 209 13
209 20 0 12 57 22 145 26 80 3 164 13 284 33 35 6 111 13 170 15 58 2 158 10
221 16 111 12 145 14 350 24 196 10 276 16 307 25 21 6 35 6 39 0 3 -6 11 -6
17 -1 7 5 95 9 197 11 144 1 186 5 192 15 6 11 17 12 50 5 27 -7 52 -6 71 1
40 14 53 13 71 -5 13 -14 18 -13 48 5 26 16 43 18 86 13 35 -4 61 -2 77 7 16
8 29 10 37 4 16 -12 154 -11 187 1 21 7 23 6 17 -10 -7 -18 -6 -18 14 0 11 10
20 15 20 10 0 -4 6 -2 14 4 7 6 27 11 42 10 16 -1 44 1 62 5 17 3 32 3 32 -1
0 -7 71 -9 95 -2 6 1 33 3 60 5 28 1 61 5 74 9 19 6 22 5 16 -5 -6 -10 -4 -11
11 -5 10 5 51 9 89 11 39 1 77 4 85 7 8 3 47 8 85 11 39 3 85 10 104 16 23 6
38 6 47 -1 9 -7 21 -6 43 5 32 17 38 30 40 92 1 35 -3 45 -37 75 l-39 35 -109
-1 c-90 0 -109 -3 -109 -15 0 -9 -21 -22 -55 -33 -53 -17 -82 -21 -253 -32
-42 -2 -87 -9 -98 -15 -15 -8 -24 -8 -34 0 -8 7 -18 9 -23 6 -5 -3 -72 -8
-148 -11 -77 -3 -172 -10 -213 -16 -41 -5 -76 -7 -78 -5 -3 2 -20 -2 -39 -10
-24 -10 -34 -11 -34 -3 0 8 -29 10 -102 6 -130 -8 -167 -13 -184 -28 -11 -9
-20 -9 -37 -1 -26 13 -70 10 -112 -7 -16 -7 -43 -12 -60 -11 -62 2 -212 0
-250 -5 -22 -2 -59 -6 -83 -9 -23 -2 -49 -9 -57 -16 -12 -10 -19 -10 -27 -2
-17 17 -82 15 -123 -5 -33 -16 -37 -16 -69 0 -32 15 -42 15 -122 1 -47 -8 -99
-12 -115 -9 -15 4 -36 2 -47 -4 -10 -6 -66 -13 -123 -17 -57 -3 -108 -9 -112
-13 -4 -5 -28 -6 -53 -3 -24 2 -50 0 -57 -6 -15 -12 -97 -21 -207 -23 -47 -1
-96 -6 -110 -11 -14 -6 -70 -11 -125 -13 -126 -3 -216 -13 -281 -31 -28 -8
-87 -15 -130 -16 -43 -1 -81 -5 -84 -9 -3 -4 -46 -10 -96 -13 -50 -4 -105 -10
-122 -15 -40 -12 -72 -3 -72 19 0 17 -8 18 -97 14 -54 -3 -136 -10 -182 -15
-97 -12 -124 -1 -81 31 27 21 70 27 70 9 0 -6 8 -1 18 11 16 20 21 21 41 10
19 -9 28 -9 47 0 14 8 38 10 61 7 28 -5 46 -2 62 9 12 9 41 18 64 20 75 5 120
14 133 25 7 6 18 9 26 7 7 -2 23 7 36 20 24 24 72 30 72 10 0 -7 11 0 25 15
26 28 45 35 45 17 0 -5 -5 -10 -11 -10 -5 0 -8 -4 -5 -9 7 -11 53 -6 71 9 11
9 27 9 62 1 41 -9 50 -8 60 6 11 14 16 15 37 4 19 -11 28 -10 54 3 17 9 45 16
62 16 19 0 30 5 30 14 0 22 30 28 48 10 12 -13 28 -15 70 -11 29 3 59 10 66
16 7 6 32 12 57 15 24 2 51 7 60 10 9 4 21 0 29 -9 17 -21 29 -19 50 8 15 18
21 20 31 10 7 -7 25 -13 41 -13 21 0 31 8 43 31 17 32 51 37 49 6 -1 -10 5
-17 16 -17 10 0 25 -3 34 -6 11 -4 19 1 24 17 8 20 9 20 15 4 6 -14 10 -15 22
-5 8 7 21 10 29 7 7 -3 18 -1 24 5 8 8 15 8 26 -1 12 -10 17 -8 26 10 9 16 14
19 20 8 7 -10 16 -10 52 0 24 7 51 17 60 22 10 5 19 5 23 -1 10 -15 23 -12 28
8 4 16 5 16 6 0 1 -23 6 -22 47 2 20 13 35 17 39 10 3 -6 45 -10 96 -10 69 0
94 4 106 16 11 11 19 12 26 5 19 -19 102 -13 130 9 29 23 44 25 49 8 4 -10 10
-10 31 -1 27 13 61 8 52 -7 -8 -14 24 -20 38 -7 21 19 57 38 65 33 13 -8 256
14 262 24 3 5 21 5 43 1 20 -5 37 -5 37 -1 0 4 11 11 24 14 13 3 31 9 40 12
11 4 16 1 16 -10 0 -24 28 -31 49 -12 11 10 36 16 67 16 149 0 180 3 194 15
13 12 20 12 40 1 18 -9 36 -9 64 -3 26 7 59 6 103 -2 41 -7 69 -8 76 -3 7 6
24 10 40 10 25 0 32 -9 28 -32 -1 -4 14 1 32 13 40 24 75 27 83 6 5 -12 9 -12
28 0 13 8 26 12 29 8 4 -3 7 2 7 13 0 11 3 15 8 8 11 -16 437 -13 454 4 14 14
32 16 23 2 -3 -5 -1 -10 4 -10 6 0 11 6 11 14 0 8 8 17 18 20 14 5 16 15 14
54 -3 41 -8 51 -32 65 -15 10 -42 17 -59 17 -16 0 -34 7 -39 15 -7 14 -12 14
-45 0 -21 -9 -38 -11 -42 -5 -4 6 -15 6 -30 0 -20 -8 -25 -6 -25 6 0 14 -2 14
-16 3 -14 -11 -18 -11 -28 2 -6 9 -27 19 -47 23 -32 6 -41 3 -66 -22z"/>
</g>
</svg>
